<!--?xml version="1.0" encoding="utf-8"?-->
<!-- Generator: Adobe Illustrator 18.1.1, SVG Export Plug-In . SVG Version: 6.00 Build 0)  -->

<svg version="1.1" id="_x32_" xmlns="http://www.w3.org/2000/svg" xmlns:xlink="http://www.w3.org/1999/xlink" x="0px" y="0px" viewBox="0 0 512 512" style="width: 32px; height: 32px; opacity: 1;" xml:space="preserve">
<style type="text/css">
	.st0{fill:#4B4B4B;}
</style>
<g>
	<path class="st0" d="M421.32,436.262l-93.262-148.959c-7.872-12.585-12.048-27.115-12.048-41.957l0.13-111.186l-119.562-0.121
		l-0.121,111.098c-0.018,14.859-4.227,29.424-12.134,42.009L90.733,435.914c-5.043,8.02-7.587,17.177-7.587,26.334
		c0,8.21,2.04,16.457,6.145,23.904c8.714,15.778,25.284,25.57,43.294,25.587L379.32,512h0.017c0.668,0,1.007-0.035,1.016-0.035
		l-0.009-0.036c17.611-0.346,33.738-9.981,42.314-25.413v-0.018c4.14-7.464,6.196-15.736,6.196-23.981
		C428.854,453.395,426.328,444.264,421.32,436.262z M397.407,472.516c-3.628,6.553-10.536,10.633-18.027,10.615
		c-0.078,0-0.095,0.018-0.148,0.018l-246.621-0.27c-7.5-0.009-14.426-4.096-18.036-10.667c-1.728-3.125-2.57-6.527-2.57-9.964
		c0-3.828,1.051-7.62,3.16-10.971l93.574-148.759c10.815-17.186,16.543-37.053,16.578-57.364l0.087-82.23l61.842,0.069
		l-0.095,82.248v0.035v0.069c0,20.258,5.703,40.091,16.448,57.268l93.253,148.958c2.092,3.333,3.142,7.135,3.15,10.946
		C399.995,465.964,399.144,469.382,397.407,472.516z" style="fill: rgb(75, 75, 75);"></path>
	<path class="st0" d="M276.371,46.723c12.906,0.017,23.374-10.434,23.391-23.348C299.771,10.476,289.33,0.009,276.432,0
		c-12.915-0.009-23.382,10.425-23.391,23.34C253.023,36.238,263.465,46.705,276.371,46.723z" style="fill: rgb(75, 75, 75);"></path>
	<path class="st0" d="M250.194,114.024c7.595,0.018,13.748-6.136,13.748-13.722c0.009-7.595-6.127-13.749-13.713-13.758
		c-7.595-0.009-13.758,6.145-13.766,13.731C236.462,107.87,242.607,114.024,250.194,114.024z" style="fill: rgb(75, 75, 75);"></path>
	<path class="st0" d="M279.149,76.962c-0.009,9.079,7.342,16.422,16.421,16.448c9.062,0,16.431-7.334,16.439-16.413
		c0.009-9.061-7.334-16.422-16.404-16.422C286.527,60.549,279.158,67.892,279.149,76.962z" style="fill: rgb(75, 75, 75);"></path>
	<path class="st0" d="M305.933,349.075c-1.058-1.71-2.933-2.743-4.938-2.743l-89.73-0.095c-2.014,0-3.888,1.024-4.948,2.734
		L141.951,451.26c-1.129,1.805-1.198,4.08-0.165,5.945c1.024,1.866,2.985,3.012,5.112,3.012l218.214,0.235
		c2.126,0.008,4.078-1.138,5.12-3.003c1.025-1.866,0.964-4.132-0.173-5.928L305.933,349.075z M234.926,402.273
		c-8.54,0-15.458-6.926-15.458-15.45c0-8.558,6.918-15.468,15.458-15.468c8.54,0,15.458,6.909,15.458,15.468
		C250.384,395.346,243.467,402.273,234.926,402.273z M284.4,436.279c-5.694,0-10.303-4.608-10.303-10.294
		c0-5.694,4.609-10.311,10.303-10.311s10.303,4.617,10.303,10.311C294.703,431.67,290.093,436.279,284.4,436.279z" style="fill: rgb(75, 75, 75);"></path>
</g>
</svg>
